Coordinates
version=1
nRows=7
nColumns=40
inDegrees=yes

Units are S.I. units (second, meters, Newtons, ...)
If the header above contains a line with 'inDegrees', this indicates whether rotational values are in degrees (yes) or radians (no).

endheader
time	pelvis_tilt	pelvis_list	pelvis_rotation	pelvis_tx	pelvis_ty	pelvis_tz	hip_flexion_r	hip_adduction_r	hip_rotation_r	knee_angle_r	knee_angle_r_beta	ankle_angle_r	subtalar_angle_r	mtp_angle_r	hip_flexion_l	hip_adduction_l	hip_rotation_l	knee_angle_l	knee_angle_l_beta	ankle_angle_l	subtalar_angle_l	mtp_angle_l	lumbar_extension	lumbar_bending	lumbar_rotation	arm_flex_r	arm_add_r	arm_rot_r	elbow_flex_r	pro_sup_r	wrist_flex_r	wrist_dev_r	arm_flex_l	arm_add_l	arm_rot_l	elbow_flex_l	pro_sup_l	wrist_flex_l	wrist_dev_l
      0.00000000	    -11.26853090	      5.47872175	    -18.72814767	      0.05300761	      1.30610093	      0.02236028	     81.99208345	     12.50073725	     15.94883373	    114.79883873	      2.00361771	     -8.75327708	    -31.40277039	      0.00000000	     39.22650390	     -9.83819190	    -13.41659131	     37.81829460	      0.66005376	    -20.12194142	    -22.08128069	      0.00000000	    -31.98924471	     -8.41580429	      6.03664720	     63.66422692	      0.11520135	      1.78694959	     45.61189997	     86.50537146	      0.00000000	      0.00000000	     63.27750206	     -5.87763089	    -13.85010598	     54.52369837	     74.18958207	      0.00000000	      0.00000000
      0.01700000	    -10.85287280	      5.61706058	    -18.08231739	      0.05292995	      1.30656307	      0.02154231	     82.21488198	     12.64013255	     15.94629683	    112.58599010	      1.96499622	     -6.79501735	    -32.36932602	      0.00000000	     38.81491551	     -9.20970011	    -13.20112795	     41.01026569	      0.71576416	    -20.75615059	    -22.08495057	      0.00000000	    -32.54390249	     -8.34294408	      5.50725972	     63.43482498	     -0.19549999	      1.88025415	     46.12639720	     86.36773672	      0.00000000	      0.00000000	     63.27494277	     -5.72715384	    -13.86534151	     54.64325464	     74.26315155	      0.00000000	      0.00000000
      0.03300000	    -10.47725540	      5.59352715	    -17.36218955	      0.05286393	      1.30695809	      0.02056001	     82.41343679	     12.70423381	     15.88134974	    110.27931606	      1.92473716	     -5.15320218	    -33.13243412	      0.00000000	     38.41828995	     -8.64885141	    -12.72065052	     44.13020149	      0.77021732	    -21.79796717	    -22.14148462	      0.00000000	    -33.09918981	     -8.05563204	      5.05083759	     63.16987279	     -0.59666716	      2.03327217	     46.76638320	     86.27621918	      0.00000000	      0.00000000	     63.28780946	     -5.49113552	    -13.91253796	     54.72500518	     74.30484897	      0.00000000	      0.00000000
      0.05000000	    -10.10119919	      5.64050753	    -16.65661157	      0.05282213	      1.30750591	      0.01965331	     82.16172131	     12.45150822	     15.91471196	    107.25393836	      1.87193436	     -4.10750810	    -33.48057745	      0.00000000	     38.60339652	     -8.24589203	    -12.35014658	     48.10463530	      0.83958427	    -22.64981834	    -22.19763705	      0.00000000	    -33.63211834	     -7.82962491	      4.48634542	     63.05487574	     -0.84455994	      2.11370559	     47.15585437	     86.38086581	      0.00000000	      0.00000000	     63.39239713	     -5.32062096	    -14.02790986	     54.70036523	     74.36016966	      0.00000000	      0.00000000
      0.06700000	     -9.45951615	      6.27005997	    -16.28112096	      0.05282330	      1.30857116	      0.01931988	     81.14919767	     11.96141057	     16.66262902	    103.21011364	      1.80135630	     -3.63598811	    -33.23199075	      0.00000000	     39.25179319	     -7.81782331	    -12.77049922	     53.11437676	      0.92702075	    -23.36267493	    -21.57671667	      0.00000000	    -34.31320613	     -8.36140616	      3.67766286	     63.06842284	     -0.83693772	      2.05695000	     47.35350534	     85.85112277	      0.00000000	      0.00000000	     63.59808402	     -5.34896632	    -14.04554494	     54.78347648	     74.18633812	      0.00000000	      0.00000000
      0.08300000	     -9.10469100	      6.36897203	    -16.16595576	      0.05295493	      1.30903433	      0.01929446	     79.89277533	     11.57016675	     16.64049145	     98.40281596	      1.71745313	     -4.16943495	    -33.53820292	      0.00000000	     40.77836882	     -8.30444911	    -13.05038906	     59.41490571	      1.03698573	    -23.82183421	    -21.59035603	      0.00000000	    -34.64329943	     -8.41319907	      3.29704921	     63.48293380	     -0.49181384	      1.99181029	     46.66823775	     86.30416730	      0.00000000	      0.00000000	     63.74232536	     -5.54041550	    -14.21477957	     54.57527697	     74.33813856	      0.00000000	      0.00000000
      0.10000000	     -8.72832573	      6.70546189	    -15.91214480	      0.05306346	      1.30973152	      0.01913992	     77.90590181	     10.73019674	     16.81555472	     93.16685400	      1.62606836	     -4.71105879	    -33.64838389	      0.00000000	     42.51840646	     -8.51196602	    -13.12545900	     65.45896907	      1.14247454	    -24.32154953	    -21.40936749	      0.00000000	    -35.02648849	     -8.67485513	      2.71866919	     63.69893716	     -0.20432826	      1.81680843	     46.36179490	     86.22750062	      0.00000000	      0.00000000	     63.92870066	     -5.71018463	    -14.17238708	     54.52897497	     74.35236437	      0.00000000	      0.00000000
